<!-- Generator: Adobe Illustrator 19.0.0, SVG Export Plug-In  -->
<svg version="1.1"
	 xmlns="http://www.w3.org/2000/svg" xmlns:xlink="http://www.w3.org/1999/xlink" xmlns:a="http://ns.adobe.com/AdobeSVGViewerExtensions/3.0/"
	 x="0px" y="0px" width="212.982px" height="212.982px" viewBox="0 0 212.982 212.982"
	 style="enable-background:new 0 0 212.982 212.982;" xml:space="preserve">
<style type="text/css">
	.st0{fill:#FFFFFF;}
</style>
<defs>
</defs>
<g id="Close_1_">
	<path class="st0" d="M131.804,106.492l75.936-75.936c6.99-6.99,6.99-18.323,0-25.312c-6.99-6.99-18.322-6.99-25.312,0
		L106.491,81.18L30.554,5.242c-6.99-6.99-18.322-6.99-25.312,0c-6.989,6.99-6.989,18.323,0,25.312l75.937,75.936L5.242,182.428
		c-6.989,6.99-6.989,18.323,0,25.312c6.99,6.99,18.322,6.99,25.312,0l75.937-75.937l75.937,75.937c6.989,6.99,18.322,6.99,25.312,0
		c6.99-6.99,6.99-18.322,0-25.312L131.804,106.492z"/>
</g>
</svg>